#
#
#

mtllib arrow.mtl


#
# group1 pCone1 網狀
#
g group1 pCone1 網狀

v -0.142893 4.836211 -0.211693
v -0.142893 4.903198 0.038307
v -0.142893 4.836211 0.288307
v -0.142893 4.653198 0.471320
v -0.142893 4.403198 0.538307
v -0.142893 4.153198 0.471320
v -0.142893 3.970185 0.288307
v -0.142893 3.903198 0.038307
v -0.142893 3.970185 -0.211693
v -0.142893 4.153198 -0.394706
v -0.142893 4.403198 -0.461693
v -0.142893 4.653198 -0.394706
v -1.642893 4.403198 0.038307
vn 1.000000 0.000000 0.000000
vn -0.306481 0.673079 -0.673079
vn -0.306481 0.246364 -0.919442
vn -0.306481 -0.246364 -0.919442
vn -0.306481 -0.673079 -0.673079
vn -0.306481 -0.919442 -0.246364
vn -0.306481 -0.919442 0.246364
vn -0.306481 -0.673079 0.673079
vn -0.306481 -0.246364 0.919442
vn -0.306481 0.246364 0.919442
vn -0.306481 0.673079 0.673079
vn -0.306481 0.919442 0.246364
vn -0.306481 0.919442 -0.246364
vt 0.716506 0.125000
vt 0.750000 0.250000
vt 0.716506 0.375000
vt 0.625000 0.466506
vt 0.500000 0.500000
vt 0.375000 0.466506
vt 0.283494 0.375000
vt 0.250000 0.250000
vt 0.283494 0.125000
vt 0.375000 0.033494
vt 0.500000 0.000000
vt 0.625000 0.033494
vt 0.250000 0.500000
vt 0.291667 0.500000
vt 0.500000 1.000000
vt 0.333333 0.500000
vt 0.375000 0.500000
vt 0.416667 0.500000
vt 0.458333 0.500000
vt 0.541667 0.500000
vt 0.583333 0.500000
vt 0.625000 0.500000
vt 0.666667 0.500000
vt 0.708333 0.500000
vt 0.750000 0.500000
f 1/1/1 2/2/1 3/3/1 4/4/1 5/5/1 6/6/1 7/7/1 8/8/1 9/9/1 10/10/1 11/11/1 12/12/1
f 1/13/2 12/14/2 13/15/2
f 12/14/3 11/16/3 13/15/3
f 11/16/4 10/17/4 13/15/4
f 10/17/5 9/18/5 13/15/5
f 9/18/6 8/19/6 13/15/6
f 8/19/7 7/5/7 13/15/7
f 7/5/8 6/20/8 13/15/8
f 6/20/9 5/21/9 13/15/9
f 5/21/10 4/22/10 13/15/10
f 4/22/11 3/23/11 13/15/11
f 3/23/12 2/24/12 13/15/12
f 2/24/13 1/25/13 13/15/13


#
# pCylinder1 group1 網狀
#
g pCylinder1 group1 網狀

v 0.173205 -0.000000 -0.061693
v 0.100000 -0.000000 -0.134898
v 0.100000 5.000000 -0.134898
v 0.173205 5.000000 -0.061693
v 0.000000 -0.000000 -0.161693
v 0.000000 5.000000 -0.161693
v -0.100000 -0.000000 -0.134898
v -0.100000 5.000000 -0.134898
v -0.173205 -0.000000 -0.061693
v -0.173205 5.000000 -0.061693
v -0.200000 0.000000 0.038307
v -0.200000 5.000000 0.038307
v -0.173205 0.000000 0.138307
v -0.173205 5.000000 0.138307
v -0.100000 0.000000 0.211512
v -0.100000 5.000000 0.211512
v 0.000000 0.000000 0.238307
v 0.000000 5.000000 0.238307
v 0.100000 0.000000 0.211512
v 0.100000 5.000000 0.211512
v 0.173205 0.000000 0.138307
v 0.173205 5.000000 0.138307
v 0.200000 0.000000 0.038307
v 0.200000 5.000000 0.038307
v 0.000000 0.000000 0.038307
v 0.000000 5.000000 0.038307
vn 0.707107 -0.000000 -0.707107
vn 0.258819 -0.000000 -0.965926
vn -0.258819 -0.000000 -0.965926
vn -0.707107 -0.000000 -0.707107
vn -0.965926 -0.000000 -0.258819
vn -0.965926 0.000000 0.258819
vn -0.707107 0.000000 0.707107
vn -0.258819 0.000000 0.965926
vn 0.258819 0.000000 0.965926
vn 0.707107 0.000000 0.707107
vn 0.965926 0.000000 0.258819
vn 0.965926 -0.000000 -0.258819
vn 0.000000 -1.000000 0.000000
vn 0.000000 1.000000 -0.000000
vt 0.375000 0.312500
vt 0.395833 0.312500
vt 0.395833 0.688440
vt 0.375000 0.688440
vt 0.416667 0.312500
vt 0.416667 0.688440
vt 0.437500 0.312500
vt 0.437500 0.688440
vt 0.458333 0.312500
vt 0.458333 0.688440
vt 0.479167 0.312500
vt 0.479167 0.688440
vt 0.500000 0.312500
vt 0.500000 0.688440
vt 0.520833 0.312500
vt 0.520833 0.688440
vt 0.541667 0.312500
vt 0.541667 0.688440
vt 0.562500 0.312500
vt 0.562500 0.688440
vt 0.583333 0.312500
vt 0.583333 0.688440
vt 0.604167 0.312500
vt 0.604167 0.688440
vt 0.625000 0.312500
vt 0.625000 0.688440
vt 0.578125 0.020934
vt 0.635316 0.078125
vt 0.500000 0.150000
vt 0.500000 0.000000
vt 0.421875 0.020934
vt 0.364684 0.078125
vt 0.343750 0.156250
vt 0.364684 0.234375
vt 0.421875 0.291566
vt 0.578125 0.291566
vt 0.635316 0.234375
vt 0.656250 0.156250
vt 0.635316 0.921875
vt 0.578125 0.979066
vt 0.500000 0.837500
vt 0.500000 1.000000
vt 0.421875 0.979066
vt 0.364684 0.921875
vt 0.343750 0.843750
vt 0.364684 0.765625
vt 0.421875 0.708434
vt 0.500000 0.687500
vt 0.578125 0.708434
vt 0.635316 0.765625
vt 0.656250 0.843750
f 14/26/14 15/27/14 16/28/14 17/29/14
f 15/27/15 18/30/15 19/31/15 16/28/15
f 18/30/16 20/32/16 21/33/16 19/31/16
f 20/32/17 22/34/17 23/35/17 21/33/17
f 22/34/18 24/36/18 25/37/18 23/35/18
f 24/36/19 26/38/19 27/39/19 25/37/19
f 26/38/20 28/40/20 29/41/20 27/39/20
f 28/40/21 30/42/21 31/43/21 29/41/21
f 30/42/22 32/44/22 33/45/22 31/43/22
f 32/44/23 34/46/23 35/47/23 33/45/23
f 34/46/24 36/48/24 37/49/24 35/47/24
f 36/48/25 14/50/25 17/51/25 37/49/25
f 15/52/26 14/53/26 38/54/26
f 18/55/26 15/52/26 38/54/26
f 20/56/26 18/55/26 38/54/26
f 22/57/26 20/56/26 38/54/26
f 24/58/26 22/57/26 38/54/26
f 26/59/26 24/58/26 38/54/26
f 28/60/26 26/59/26 38/54/26
f 30/38/26 28/60/26 38/54/26
f 32/61/26 30/38/26 38/54/26
f 34/62/26 32/61/26 38/54/26
f 36/63/26 34/62/26 38/54/26
f 14/53/26 36/63/26 38/54/26
f 17/64/27 16/65/27 39/66/27
f 16/65/27 19/67/27 39/66/27
f 19/67/27 21/68/27 39/66/27
f 21/68/27 23/69/27 39/66/27
f 23/69/27 25/70/27 39/66/27
f 25/70/27 27/71/27 39/66/27
f 27/71/27 29/72/27 39/66/27
f 29/72/27 31/73/27 39/66/27
f 31/73/27 33/74/27 39/66/27
f 33/74/27 35/75/27 39/66/27
f 35/75/27 37/76/27 39/66/27
f 37/76/27 17/64/27 39/66/27
